<mxfile host="app.diagrams.net" modified="2024-03-01T09:50:10.146Z" agent="Mozilla/5.0 (Macintosh; Intel Mac OS X 10_15_7) AppleWebKit/537.36 (KHTML, like Gecko) Chrome/120.0.0.0 Whale/3.24.223.18 Safari/537.36" etag="5vn_HiSlZ1lDmUM-WsRk" version="23.1.5" type="github">
  <diagram name="페이지-1" id="QFWL-PfNEV1lDPDZixy_">
    <mxGraphModel dx="582" dy="1108" grid="1" gridSize="10" guides="1" tooltips="1" connect="1" arrows="1" fold="1" page="1" pageScale="1" pageWidth="1169" pageHeight="827" math="0" shadow="0">
      <root>
        <mxCell id="0" />
        <mxCell id="1" parent="0" />
        <mxCell id="xXNzWEndEbG61bvJYTR3-4" value="" style="rounded=0;whiteSpace=wrap;html=1;fillColor=none;" vertex="1" parent="1">
          <mxGeometry x="240" y="10" width="420" height="630" as="geometry" />
        </mxCell>
        <mxCell id="q_94-L3Yn4IHc_pLPKTn-1" value="" style="rounded=0;whiteSpace=wrap;html=1;" parent="1" vertex="1">
          <mxGeometry x="40" y="120" width="170" height="280" as="geometry" />
        </mxCell>
        <mxCell id="q_94-L3Yn4IHc_pLPKTn-2" value="Kafka Consumer" style="rounded=1;whiteSpace=wrap;html=1;" parent="1" vertex="1">
          <mxGeometry x="85" y="150" width="80" height="60" as="geometry" />
        </mxCell>
        <mxCell id="q_94-L3Yn4IHc_pLPKTn-3" value="Message Processing" style="rounded=1;whiteSpace=wrap;html=1;" parent="1" vertex="1">
          <mxGeometry x="85" y="230" width="80" height="60" as="geometry" />
        </mxCell>
        <mxCell id="q_94-L3Yn4IHc_pLPKTn-16" style="edgeStyle=orthogonalEdgeStyle;rounded=0;orthogonalLoop=1;jettySize=auto;html=1;entryX=0;entryY=0.5;entryDx=0;entryDy=0;strokeColor=#6c8ebf;fillColor=#dae8fc;" parent="1" source="q_94-L3Yn4IHc_pLPKTn-4" target="q_94-L3Yn4IHc_pLPKTn-8" edge="1">
          <mxGeometry relative="1" as="geometry" />
        </mxCell>
        <mxCell id="q_94-L3Yn4IHc_pLPKTn-17" style="edgeStyle=orthogonalEdgeStyle;rounded=0;orthogonalLoop=1;jettySize=auto;html=1;entryX=0;entryY=0.5;entryDx=0;entryDy=0;strokeColor=#6c8ebf;fillColor=#dae8fc;" parent="1" source="q_94-L3Yn4IHc_pLPKTn-4" target="q_94-L3Yn4IHc_pLPKTn-11" edge="1">
          <mxGeometry relative="1" as="geometry" />
        </mxCell>
        <mxCell id="q_94-L3Yn4IHc_pLPKTn-25" style="edgeStyle=orthogonalEdgeStyle;rounded=0;orthogonalLoop=1;jettySize=auto;html=1;entryX=0;entryY=0.5;entryDx=0;entryDy=0;strokeColor=#6c8ebf;fillColor=#dae8fc;" parent="1" source="q_94-L3Yn4IHc_pLPKTn-4" target="q_94-L3Yn4IHc_pLPKTn-23" edge="1">
          <mxGeometry relative="1" as="geometry" />
        </mxCell>
        <mxCell id="xXNzWEndEbG61bvJYTR3-2" style="edgeStyle=orthogonalEdgeStyle;rounded=0;orthogonalLoop=1;jettySize=auto;html=1;entryX=0;entryY=0.25;entryDx=0;entryDy=0;fillColor=#dae8fc;strokeColor=#6c8ebf;" edge="1" parent="1" source="q_94-L3Yn4IHc_pLPKTn-4" target="q_94-L3Yn4IHc_pLPKTn-28">
          <mxGeometry relative="1" as="geometry">
            <Array as="points">
              <mxPoint x="125" y="449" />
              <mxPoint x="246" y="449" />
            </Array>
          </mxGeometry>
        </mxCell>
        <mxCell id="xXNzWEndEbG61bvJYTR3-3" style="edgeStyle=orthogonalEdgeStyle;rounded=0;orthogonalLoop=1;jettySize=auto;html=1;entryX=0;entryY=0.75;entryDx=0;entryDy=0;fillColor=#dae8fc;strokeColor=#6c8ebf;" edge="1" parent="1" source="q_94-L3Yn4IHc_pLPKTn-4" target="q_94-L3Yn4IHc_pLPKTn-28">
          <mxGeometry relative="1" as="geometry">
            <Array as="points">
              <mxPoint x="125" y="466" />
              <mxPoint x="246" y="466" />
            </Array>
          </mxGeometry>
        </mxCell>
        <mxCell id="q_94-L3Yn4IHc_pLPKTn-4" value="Kafka Procuder&lt;br&gt;producerId : 1&lt;br&gt;transactionId : 2" style="rounded=1;whiteSpace=wrap;html=1;" parent="1" vertex="1">
          <mxGeometry x="77.5" y="310" width="95" height="70" as="geometry" />
        </mxCell>
        <mxCell id="q_94-L3Yn4IHc_pLPKTn-5" value="&lt;b&gt;Application&lt;/b&gt;" style="text;html=1;align=center;verticalAlign=middle;whiteSpace=wrap;rounded=0;" parent="1" vertex="1">
          <mxGeometry x="95" y="120" width="60" height="30" as="geometry" />
        </mxCell>
        <mxCell id="q_94-L3Yn4IHc_pLPKTn-6" value="" style="endArrow=classic;html=1;rounded=0;exitX=0.5;exitY=1;exitDx=0;exitDy=0;entryX=0.5;entryY=0;entryDx=0;entryDy=0;" parent="1" source="q_94-L3Yn4IHc_pLPKTn-2" target="q_94-L3Yn4IHc_pLPKTn-3" edge="1">
          <mxGeometry width="50" height="50" relative="1" as="geometry">
            <mxPoint x="30" y="420" as="sourcePoint" />
            <mxPoint x="80" y="370" as="targetPoint" />
          </mxGeometry>
        </mxCell>
        <mxCell id="q_94-L3Yn4IHc_pLPKTn-7" value="" style="endArrow=classic;html=1;rounded=0;entryX=0.5;entryY=0;entryDx=0;entryDy=0;exitX=0.5;exitY=1;exitDx=0;exitDy=0;" parent="1" source="q_94-L3Yn4IHc_pLPKTn-3" target="q_94-L3Yn4IHc_pLPKTn-4" edge="1">
          <mxGeometry width="50" height="50" relative="1" as="geometry">
            <mxPoint x="30" y="420" as="sourcePoint" />
            <mxPoint x="80" y="370" as="targetPoint" />
          </mxGeometry>
        </mxCell>
        <mxCell id="q_94-L3Yn4IHc_pLPKTn-8" value="m0" style="rounded=0;whiteSpace=wrap;html=1;" parent="1" vertex="1">
          <mxGeometry x="340" y="80" width="60" height="60" as="geometry" />
        </mxCell>
        <mxCell id="q_94-L3Yn4IHc_pLPKTn-9" value="m1" style="rounded=0;whiteSpace=wrap;html=1;" parent="1" vertex="1">
          <mxGeometry x="400" y="80" width="60" height="60" as="geometry" />
        </mxCell>
        <mxCell id="q_94-L3Yn4IHc_pLPKTn-10" value="commit marker" style="rounded=0;whiteSpace=wrap;html=1;" parent="1" vertex="1">
          <mxGeometry x="460" y="80" width="60" height="60" as="geometry" />
        </mxCell>
        <mxCell id="q_94-L3Yn4IHc_pLPKTn-11" value="m2" style="rounded=0;whiteSpace=wrap;html=1;" parent="1" vertex="1">
          <mxGeometry x="340" y="170" width="60" height="60" as="geometry" />
        </mxCell>
        <mxCell id="q_94-L3Yn4IHc_pLPKTn-14" value="TP1" style="text;html=1;align=center;verticalAlign=middle;whiteSpace=wrap;rounded=0;" parent="1" vertex="1">
          <mxGeometry x="340" y="50" width="60" height="30" as="geometry" />
        </mxCell>
        <mxCell id="q_94-L3Yn4IHc_pLPKTn-15" value="TP2" style="text;html=1;align=center;verticalAlign=middle;whiteSpace=wrap;rounded=0;" parent="1" vertex="1">
          <mxGeometry x="340" y="140" width="60" height="30" as="geometry" />
        </mxCell>
        <mxCell id="q_94-L3Yn4IHc_pLPKTn-18" value="tp1-offset-m1" style="rounded=0;whiteSpace=wrap;html=1;" parent="1" vertex="1">
          <mxGeometry x="340" y="260" width="60" height="60" as="geometry" />
        </mxCell>
        <mxCell id="q_94-L3Yn4IHc_pLPKTn-19" value="tp2-offset-m2" style="rounded=0;whiteSpace=wrap;html=1;" parent="1" vertex="1">
          <mxGeometry x="400" y="260" width="60" height="60" as="geometry" />
        </mxCell>
        <mxCell id="q_94-L3Yn4IHc_pLPKTn-20" value="commit marker" style="rounded=0;whiteSpace=wrap;html=1;" parent="1" vertex="1">
          <mxGeometry x="460" y="260" width="60" height="60" as="geometry" />
        </mxCell>
        <mxCell id="q_94-L3Yn4IHc_pLPKTn-21" value="Consumer Offsets" style="text;html=1;align=center;verticalAlign=middle;whiteSpace=wrap;rounded=0;" parent="1" vertex="1">
          <mxGeometry x="340" y="230" width="100" height="30" as="geometry" />
        </mxCell>
        <mxCell id="q_94-L3Yn4IHc_pLPKTn-22" value="commit marker" style="rounded=0;whiteSpace=wrap;html=1;" parent="1" vertex="1">
          <mxGeometry x="400" y="170" width="60" height="60" as="geometry" />
        </mxCell>
        <mxCell id="q_94-L3Yn4IHc_pLPKTn-26" style="rounded=0;orthogonalLoop=1;jettySize=auto;html=1;entryX=0.5;entryY=1;entryDx=0;entryDy=0;fillColor=#dae8fc;strokeColor=#6c8ebf;" parent="1" source="q_94-L3Yn4IHc_pLPKTn-23" target="q_94-L3Yn4IHc_pLPKTn-18" edge="1">
          <mxGeometry relative="1" as="geometry" />
        </mxCell>
        <mxCell id="q_94-L3Yn4IHc_pLPKTn-27" style="rounded=0;orthogonalLoop=1;jettySize=auto;html=1;entryX=0.5;entryY=1;entryDx=0;entryDy=0;fillColor=#dae8fc;strokeColor=#6c8ebf;" parent="1" source="q_94-L3Yn4IHc_pLPKTn-23" target="q_94-L3Yn4IHc_pLPKTn-19" edge="1">
          <mxGeometry relative="1" as="geometry" />
        </mxCell>
        <mxCell id="q_94-L3Yn4IHc_pLPKTn-23" value="Consumer Coordinator" style="rounded=1;whiteSpace=wrap;html=1;" parent="1" vertex="1">
          <mxGeometry x="340" y="366" width="160" height="34" as="geometry" />
        </mxCell>
        <mxCell id="q_94-L3Yn4IHc_pLPKTn-37" style="rounded=0;orthogonalLoop=1;jettySize=auto;html=1;entryX=0.5;entryY=0;entryDx=0;entryDy=0;fillColor=#dae8fc;strokeColor=#6c8ebf;" parent="1" source="q_94-L3Yn4IHc_pLPKTn-28" target="q_94-L3Yn4IHc_pLPKTn-29" edge="1">
          <mxGeometry relative="1" as="geometry" />
        </mxCell>
        <mxCell id="q_94-L3Yn4IHc_pLPKTn-38" style="rounded=0;orthogonalLoop=1;jettySize=auto;html=1;entryX=0.5;entryY=0;entryDx=0;entryDy=0;fillColor=#dae8fc;strokeColor=#6c8ebf;" parent="1" source="q_94-L3Yn4IHc_pLPKTn-28" target="q_94-L3Yn4IHc_pLPKTn-34" edge="1">
          <mxGeometry relative="1" as="geometry" />
        </mxCell>
        <mxCell id="q_94-L3Yn4IHc_pLPKTn-39" style="rounded=0;orthogonalLoop=1;jettySize=auto;html=1;entryX=0.5;entryY=0;entryDx=0;entryDy=0;fillColor=#d5e8d4;strokeColor=#82b366;" parent="1" source="q_94-L3Yn4IHc_pLPKTn-28" target="q_94-L3Yn4IHc_pLPKTn-35" edge="1">
          <mxGeometry relative="1" as="geometry" />
        </mxCell>
        <mxCell id="q_94-L3Yn4IHc_pLPKTn-40" style="rounded=0;orthogonalLoop=1;jettySize=auto;html=1;entryX=0.5;entryY=0;entryDx=0;entryDy=0;fillColor=#d5e8d4;strokeColor=#82b366;" parent="1" source="q_94-L3Yn4IHc_pLPKTn-28" target="q_94-L3Yn4IHc_pLPKTn-36" edge="1">
          <mxGeometry relative="1" as="geometry" />
        </mxCell>
        <mxCell id="q_94-L3Yn4IHc_pLPKTn-42" style="edgeStyle=orthogonalEdgeStyle;rounded=0;orthogonalLoop=1;jettySize=auto;html=1;entryX=1;entryY=0.5;entryDx=0;entryDy=0;fillColor=#d5e8d4;strokeColor=#82b366;" parent="1" source="q_94-L3Yn4IHc_pLPKTn-28" target="q_94-L3Yn4IHc_pLPKTn-22" edge="1">
          <mxGeometry relative="1" as="geometry">
            <Array as="points">
              <mxPoint x="580" y="457" />
              <mxPoint x="580" y="200" />
            </Array>
          </mxGeometry>
        </mxCell>
        <mxCell id="q_94-L3Yn4IHc_pLPKTn-43" style="edgeStyle=orthogonalEdgeStyle;rounded=0;orthogonalLoop=1;jettySize=auto;html=1;entryX=1;entryY=0.5;entryDx=0;entryDy=0;fillColor=#d5e8d4;strokeColor=#82b366;" parent="1" source="q_94-L3Yn4IHc_pLPKTn-28" target="q_94-L3Yn4IHc_pLPKTn-20" edge="1">
          <mxGeometry relative="1" as="geometry">
            <Array as="points">
              <mxPoint x="580" y="457" />
              <mxPoint x="580" y="290" />
            </Array>
          </mxGeometry>
        </mxCell>
        <mxCell id="q_94-L3Yn4IHc_pLPKTn-28" value="Transaction Coordinator" style="rounded=1;whiteSpace=wrap;html=1;" parent="1" vertex="1">
          <mxGeometry x="340" y="440" width="160" height="34" as="geometry" />
        </mxCell>
        <mxCell id="q_94-L3Yn4IHc_pLPKTn-29" value="producer Id : 1&lt;br&gt;init&lt;br&gt;transaction Id : 2" style="rounded=0;whiteSpace=wrap;html=1;" parent="1" vertex="1">
          <mxGeometry x="260" y="540" width="95" height="60" as="geometry" />
        </mxCell>
        <mxCell id="q_94-L3Yn4IHc_pLPKTn-32" value="Transaction Log" style="text;html=1;align=center;verticalAlign=middle;whiteSpace=wrap;rounded=0;" parent="1" vertex="1">
          <mxGeometry x="260" y="600" width="90" height="30" as="geometry" />
        </mxCell>
        <mxCell id="q_94-L3Yn4IHc_pLPKTn-34" value="producer Id : 1&lt;br&gt;ongoing&lt;br&gt;transaction Id : 2" style="rounded=0;whiteSpace=wrap;html=1;" parent="1" vertex="1">
          <mxGeometry x="355" y="540" width="95" height="60" as="geometry" />
        </mxCell>
        <mxCell id="q_94-L3Yn4IHc_pLPKTn-35" value="producer Id : 1&lt;br&gt;prepare&lt;br&gt;transaction Id : 2" style="rounded=0;whiteSpace=wrap;html=1;" parent="1" vertex="1">
          <mxGeometry x="450" y="540" width="95" height="60" as="geometry" />
        </mxCell>
        <mxCell id="q_94-L3Yn4IHc_pLPKTn-36" value="producer Id : 1&lt;br&gt;commited&lt;br&gt;transaction Id : 2" style="rounded=0;whiteSpace=wrap;html=1;" parent="1" vertex="1">
          <mxGeometry x="545" y="540" width="95" height="60" as="geometry" />
        </mxCell>
        <mxCell id="q_94-L3Yn4IHc_pLPKTn-41" style="edgeStyle=orthogonalEdgeStyle;rounded=0;orthogonalLoop=1;jettySize=auto;html=1;entryX=0.983;entryY=0.4;entryDx=0;entryDy=0;entryPerimeter=0;fillColor=#d5e8d4;strokeColor=#82b366;" parent="1" source="q_94-L3Yn4IHc_pLPKTn-28" target="q_94-L3Yn4IHc_pLPKTn-10" edge="1">
          <mxGeometry relative="1" as="geometry">
            <Array as="points">
              <mxPoint x="580" y="457" />
              <mxPoint x="580" y="104" />
            </Array>
          </mxGeometry>
        </mxCell>
        <mxCell id="xXNzWEndEbG61bvJYTR3-5" value="&lt;b&gt;&lt;font style=&quot;font-size: 15px;&quot;&gt;Kafka Broker&lt;/font&gt;&lt;/b&gt;" style="text;html=1;align=center;verticalAlign=middle;whiteSpace=wrap;rounded=0;" vertex="1" parent="1">
          <mxGeometry x="395" y="10" width="110" height="30" as="geometry" />
        </mxCell>
        <mxCell id="xXNzWEndEbG61bvJYTR3-10" value="1" style="ellipse;whiteSpace=wrap;html=1;aspect=fixed;fillColor=#dae8fc;strokeColor=#6c8ebf;" vertex="1" parent="1">
          <mxGeometry x="130" y="420" width="24" height="24" as="geometry" />
        </mxCell>
        <mxCell id="xXNzWEndEbG61bvJYTR3-11" value="init" style="text;html=1;align=left;verticalAlign=middle;whiteSpace=wrap;rounded=0;fillColor=default;opacity=70;" vertex="1" parent="1">
          <mxGeometry x="155" y="417" width="55" height="30" as="geometry" />
        </mxCell>
        <mxCell id="xXNzWEndEbG61bvJYTR3-12" value="3" style="ellipse;whiteSpace=wrap;html=1;aspect=fixed;fillColor=#dae8fc;strokeColor=#6c8ebf;" vertex="1" parent="1">
          <mxGeometry x="130" y="473" width="24" height="24" as="geometry" />
        </mxCell>
        <mxCell id="xXNzWEndEbG61bvJYTR3-13" value="&lt;p style=&quot;line-height: 120%;&quot;&gt;commit&lt;/p&gt;" style="text;html=1;align=left;verticalAlign=middle;whiteSpace=wrap;rounded=0;fillColor=default;opacity=70;" vertex="1" parent="1">
          <mxGeometry x="154" y="470" width="46" height="30" as="geometry" />
        </mxCell>
        <mxCell id="xXNzWEndEbG61bvJYTR3-14" value="2" style="ellipse;whiteSpace=wrap;html=1;aspect=fixed;fillColor=#dae8fc;strokeColor=#6c8ebf;" vertex="1" parent="1">
          <mxGeometry x="190" y="313" width="24" height="24" as="geometry" />
        </mxCell>
        <mxCell id="xXNzWEndEbG61bvJYTR3-15" value="produce" style="text;html=1;align=left;verticalAlign=middle;whiteSpace=wrap;rounded=0;fillColor=default;opacity=70;" vertex="1" parent="1">
          <mxGeometry x="214" y="310" width="46" height="30" as="geometry" />
        </mxCell>
        <mxCell id="xXNzWEndEbG61bvJYTR3-16" value="1" style="ellipse;whiteSpace=wrap;html=1;aspect=fixed;fillColor=#d5e8d4;strokeColor=#82b366;" vertex="1" parent="1">
          <mxGeometry x="436" y="500" width="24" height="24" as="geometry" />
        </mxCell>
        <mxCell id="xXNzWEndEbG61bvJYTR3-17" value="3" style="ellipse;whiteSpace=wrap;html=1;aspect=fixed;fillColor=#d5e8d4;strokeColor=#82b366;" vertex="1" parent="1">
          <mxGeometry x="540" y="490" width="24" height="24" as="geometry" />
        </mxCell>
        <mxCell id="xXNzWEndEbG61bvJYTR3-18" value="2" style="ellipse;whiteSpace=wrap;html=1;aspect=fixed;fillColor=#d5e8d4;strokeColor=#82b366;" vertex="1" parent="1">
          <mxGeometry x="530" y="430" width="24" height="24" as="geometry" />
        </mxCell>
      </root>
    </mxGraphModel>
  </diagram>
</mxfile>
